HIERARCHY
ROOT hip
{
  OFFSET 5.70873 43.8894 -1.52928
  CHANNELS 6 Xposition Yposition Zposition Zrotation Xrotation Yrotation
  JOINT abdomen
  {
    OFFSET 0 5.99393 0.287273
    CHANNELS 6 Xposition Yposition Zposition Zrotation Xrotation Yrotation
    JOINT chest
    {
      OFFSET 0 6.65865 -0.856112
      CHANNELS 6 Xposition Yposition Zposition Zrotation Xrotation Yrotation
      JOINT neck
      {
        OFFSET 0 8.65624 -1.42685
        CHANNELS 6 Xposition Yposition Zposition Zrotation Xrotation Yrotation
        JOINT head
        {
          OFFSET 0 3.80999 -0.190247
          CHANNELS 6 Xposition Yposition Zposition Zrotation Xrotation Yrotation
          End Site
          {
            OFFSET 0 0 0
          }
        }
      }
      JOINT rCollar
      {
        OFFSET -1.4963 7.5744 -1.52136
        CHANNELS 6 Xposition Yposition Zposition Zrotation Xrotation Yrotation
        JOINT rShldr
        {
          OFFSET -5.47506 -0.905672 0.485692
          CHANNELS 6 Xposition Yposition Zposition Zrotation Xrotation Yrotation
          JOINT rForeArm
          {
            OFFSET -11.3069 -0.201091 0.618544
            CHANNELS 6 Xposition Yposition Zposition Zrotation Xrotation Yrotation
            JOINT rHand
            {
              OFFSET -9.61414 -0.254739 3.48553
              CHANNELS 6 Xposition Yposition Zposition Zrotation Xrotation Yrotation
              JOINT rThumb1
              {
                OFFSET 0.176263 -0.07068 1.26622
                CHANNELS 6 Xposition Yposition Zposition Zrotation Xrotation Yrotation
                JOINT rThumb2
                {
                  OFFSET -1.04683 -0.546484 1.82182
                  CHANNELS 6 Xposition Yposition Zposition Zrotation Xrotation Yrotation
                  JOINT rThumb3
                  {
                    OFFSET -0.993472 -0.621916 0.655506
                    CHANNELS 6 Xposition Yposition Zposition Zrotation Xrotation Yrotation
                    End Site
                    {
                      OFFSET -0.996134 -0.66263 0.644615
                    }
                  }
                }
              }
              JOINT rIndex1
              {
                OFFSET -2.64253 0.566363 2.4162
                CHANNELS 6 Xposition Yposition Zposition Zrotation Xrotation Yrotation
                JOINT rIndex2
                {
                  OFFSET -1.39394 -0.635138 0.899356
                  CHANNELS 6 Xposition Yposition Zposition Zrotation Xrotation Yrotation
                  JOINT rIndex3
                  {
                    OFFSET -0.622395 -0.856016 0.402182
                    CHANNELS 6 Xposition Yposition Zposition Zrotation Xrotation Yrotation
                    End Site
                    {
                      OFFSET -0.472476 -0.801802 0.34216
                    }
                  }
                }
              }
              JOINT rMid1
              {
                OFFSET -3.20814 0.514427 1.52547
                CHANNELS 6 Xposition Yposition Zposition Zrotation Xrotation Yrotation
                JOINT rMid2
                {
                  OFFSET -1.56545 -0.497974 0.68919
                  CHANNELS 6 Xposition Yposition Zposition Zrotation Xrotation Yrotation
                  JOINT rMid3
                  {
                    OFFSET -0.679943 -1.17582 0.444246
                    CHANNELS 6 Xposition Yposition Zposition Zrotation Xrotation Yrotation
                    End Site
                    {
                      OFFSET -0.343874 -0.941341 0.267611
                    }
                  }
                }
              }
              JOINT rRing1
              {
                OFFSET -3.47877 0.200518 0.597719
                CHANNELS 6 Xposition Yposition Zposition Zrotation Xrotation Yrotation
                JOINT rRing2
                {
                  OFFSET -1.28208 -0.53155 0.44672
                  CHANNELS 6 Xposition Yposition Zposition Zrotation Xrotation Yrotation
                  JOINT rRing3
                  {
                    OFFSET -0.710288 -0.970167 0.4032
                    CHANNELS 6 Xposition Yposition Zposition Zrotation Xrotation Yrotation
                    End Site
                    {
                      OFFSET -0.403228 -0.950952 0.378354
                    }
                  }
                }
              }
              JOINT rPinky1
              {
                OFFSET -3.42483 -0.278904 -0.240415
                CHANNELS 6 Xposition Yposition Zposition Zrotation Xrotation Yrotation
                JOINT rPinky2
                {
                  OFFSET -1.05787 -0.635999 0.156459
                  CHANNELS 6 Xposition Yposition Zposition Zrotation Xrotation Yrotation
                  JOINT rPinky3
                  {
                    OFFSET -0.42815 -0.754232 0.287187
                    CHANNELS 6 Xposition Yposition Zposition Zrotation Xrotation Yrotation
                    End Site
                    {
                      OFFSET -0.235717 -0.725605 0.279416
                    }
                  }
                }
              }
            }
          }
        }
      }
      JOINT lCollar
      {
        OFFSET 1.4963 7.5744 -1.52136
        CHANNELS 6 Xposition Yposition Zposition Zrotation Xrotation Yrotation
        JOINT lShldr
        {
          OFFSET 5.47506 -0.905672 0.485692
          CHANNELS 6 Xposition Yposition Zposition Zrotation Xrotation Yrotation
          JOINT lForeArm
          {
            OFFSET 11.3069 -0.201091 0.618544
            CHANNELS 6 Xposition Yposition Zposition Zrotation Xrotation Yrotation
            JOINT lHand
            {
              OFFSET 9.61414 -0.254739 3.48553
              CHANNELS 6 Xposition Yposition Zposition Zrotation Xrotation Yrotation
              JOINT lThumb1
              {
                OFFSET -0.176263 -0.07068 1.26622
                CHANNELS 6 Xposition Yposition Zposition Zrotation Xrotation Yrotation
                JOINT lThumb2
                {
                  OFFSET 1.04683 -0.546484 1.82182
                  CHANNELS 6 Xposition Yposition Zposition Zrotation Xrotation Yrotation
                  JOINT lThumb3
                  {
                    OFFSET 0.993472 -0.621916 0.655506
                    CHANNELS 6 Xposition Yposition Zposition Zrotation Xrotation Yrotation
                    End Site
                    {
                      OFFSET 0.996134 -0.66263 0.644615
                    }
                  }
                }
              }
              JOINT lIndex1
              {
                OFFSET 2.64253 0.566363 2.4162
                CHANNELS 6 Xposition Yposition Zposition Zrotation Xrotation Yrotation
                JOINT lIndex2
                {
                  OFFSET 1.39394 -0.635138 0.899356
                  CHANNELS 6 Xposition Yposition Zposition Zrotation Xrotation Yrotation
                  JOINT lIndex3
                  {
                    OFFSET 0.622395 -0.856016 0.402182
                    CHANNELS 6 Xposition Yposition Zposition Zrotation Xrotation Yrotation
                    End Site
                    {
                      OFFSET 0.472476 -0.801802 0.34216
                    }
                  }
                }
              }
              JOINT lMid1
              {
                OFFSET 3.20814 0.514427 1.52547
                CHANNELS 6 Xposition Yposition Zposition Zrotation Xrotation Yrotation
                JOINT lMid2
                {
                  OFFSET 1.56545 -0.497974 0.68919
                  CHANNELS 6 Xposition Yposition Zposition Zrotation Xrotation Yrotation
                  JOINT lMid3
                  {
                    OFFSET 0.679943 -1.17582 0.444246
                    CHANNELS 6 Xposition Yposition Zposition Zrotation Xrotation Yrotation
                    End Site
                    {
                      OFFSET 0.343874 -0.941341 0.267611
                    }
                  }
                }
              }
              JOINT lRing1
              {
                OFFSET 3.47877 0.200518 0.597719
                CHANNELS 6 Xposition Yposition Zposition Zrotation Xrotation Yrotation
                JOINT lRing2
                {
                  OFFSET 1.28208 -0.53155 0.44672
                  CHANNELS 6 Xposition Yposition Zposition Zrotation Xrotation Yrotation
                  JOINT lRing3
                  {
                    OFFSET 0.710288 -0.970167 0.4032
                    CHANNELS 6 Xposition Yposition Zposition Zrotation Xrotation Yrotation
                    End Site
                    {
                      OFFSET 0.403228 -0.950952 0.378354
                    }
                  }
                }
              }
              JOINT lPinky1
              {
                OFFSET 3.42483 -0.278904 -0.240415
                CHANNELS 6 Xposition Yposition Zposition Zrotation Xrotation Yrotation
                JOINT lPinky2
                {
                  OFFSET 1.05787 -0.635999 0.156459
                  CHANNELS 6 Xposition Yposition Zposition Zrotation Xrotation Yrotation
                  JOINT lPinky3
                  {
                    OFFSET 0.42815 -0.754232 0.287187
                    CHANNELS 6 Xposition Yposition Zposition Zrotation Xrotation Yrotation
                    End Site
                    {
                      OFFSET 0.235717 -0.725605 0.279416
                    }
                  }
                }
              }
            }
          }
        }
      }
    }
  }
  JOINT rThigh
  {
    OFFSET -4.17848 -1.02486 0.046356
    CHANNELS 6 Xposition Yposition Zposition Zrotation Xrotation Yrotation
    JOINT rShin
    {
      OFFSET 1.27155 -17.465 -0.237699
      CHANNELS 6 Xposition Yposition Zposition Zrotation Xrotation Yrotation
      JOINT rFoot
      {
        OFFSET 0.529163 -17.3815 -1.19582
        CHANNELS 6 Xposition Yposition Zposition Zrotation Xrotation Yrotation
        JOINT rToe
        {
          OFFSET -0.711591 -4.4863 4.0596
          CHANNELS 6 Xposition Yposition Zposition Zrotation Xrotation Yrotation
          End Site
          {
            OFFSET -0.869915 -1.10655 1.99006
          }
        }
      }
    }
  }
  JOINT lThigh
  {
    OFFSET 4.17848 -1.02486 0.046356
    CHANNELS 6 Xposition Yposition Zposition Zrotation Xrotation Yrotation
    JOINT lShin
    {
      OFFSET -1.27155 -17.465 -0.237699
      CHANNELS 6 Xposition Yposition Zposition Zrotation Xrotation Yrotation
      JOINT lFoot
      {
        OFFSET -0.529163 -17.3815 -1.19582
        CHANNELS 6 Xposition Yposition Zposition Zrotation Xrotation Yrotation
        JOINT lToe
        {
          OFFSET 0.711591 -4.4863 4.0596
          CHANNELS 6 Xposition Yposition Zposition Zrotation Xrotation Yrotation
          End Site
          {
            OFFSET 0.869915 -1.10655 1.99006
          }
        }
      }
    }
  }
}
MOTION
Frames:	4
Frame Time:	0.0333333
2.53825 43.141 8.50286 -2.32294e-005 22.9876 -5.73147e-006 0 5.99393 0.287273 0.768684 -0.00569955 0.147914 4.44089e-016 6.65865 -0.856112 1.53738 -0.0094202 0.295891 0 8.65624 -1.42685 5.36266 -6.61096 1.10653 0 3.80999 -0.190247 5.35127 -6.66536 0.482579 -1.4963 7.5744 -1.52136 -2.75288 2.48176 -12.295 -5.47506 -0.905672 0.485692 67.0259 1.09755 -24.378 -11.3069 -0.201091 0.618544 60.4824 62.479 -2.74994 -9.61414 -0.254739 3.48553 -26.7312 34.8355 6.72663 0.176263 -0.07068 1.26622 -7.36756 1.74323 -11.9993 -1.04683 -0.546484 1.82182 -0.218608 0.23252 -0.655867 -0.993472 -0.621916 0.655506 -2.27851 2.72367 -7.25747 -2.64253 0.566363 2.4162 5.18843 6.90114 -6.67875 -1.39394 -0.635138 0.899356 -1.2634 -0.338518 0.182516 -0.622395 -0.856016 0.402182 1.13675 0.301054 -0.170389 -3.20814 0.514427 1.52547 -6.01107 1.36871 0.943492 -1.56545 -0.497974 0.68919 -2.08094 -0.645017 0.284486 -0.679943 -1.17582 0.444246 -6.43295 -2.02778 0.804103 -3.47877 0.200518 0.597719 -10.91 -4.63031 1.77803 -1.28208 -0.53155 0.44672 -6.17938 -2.20188 1.01385 -0.710288 -0.970167 0.4032 -10.4595 -3.79149 1.57722 -3.42483 -0.278904 -0.240415 -10.0536 -5.87087 2.34381 -1.05787 -0.635999 0.156459 -8.35995 -3.23862 1.18205 -0.42815 -0.754232 0.287187 -10.1664 -3.96072 1.37519 1.4963 7.5744 -1.52136 2.74967 3.42236 12.3256 5.47506 -0.905672 0.485692 -75.9856 12.8453 14.4492 11.3069 -0.201091 0.618544 -55.6219 58.3064 -5.06263 9.61414 -0.254739 3.48553 8.57897 19.77 -13.8127 -0.176263 -0.07068 1.26622 2.74063 2.8131 9.90109 1.04683 -0.546484 1.82182 -1.10807 -0.308478 -1.96784 0.993472 -0.621916 0.655506 2.44898 0.830965 4.40251 2.64253 0.566363 2.4162 -14.5168 7.61107 13.936 1.39394 -0.635138 0.899356 -9.59115 2.8468 4.04112 0.622395 -0.856016 0.402182 -11.8722 3.41325 5.05549 3.20814 0.514427 1.52547 -9.57798 6.37398 5.36875 1.56545 -0.497974 0.68919 -13.5915 4.39947 5.9246 0.679943 -1.17582 0.444246 -9.43436 3.22106 4.0248 3.47877 0.200518 0.597719 -8.55941 2.70017 3.62365 1.28208 -0.53155 0.44672 -12.9848 4.63909 6.35761 0.710288 -0.970167 0.4032 -8.9061 3.3591 4.27687 3.42483 -0.278904 -0.240415 -9.39782 2.50141 2.57459 1.05787 -0.635999 0.156459 -10.7808 4.32818 5.14791 0.42815 -0.754232 0.287187 -9.06221 3.71485 4.28693 -4.17848 -1.02486 0.046356 -4.9279 -27.8235 29.6576 1.27155 -17.465 -0.237699 3.0145 20.0954 2.17044 0.529163 -17.3815 -1.19582 1.02627 -18.2786 3.10153 -0.711591 -4.4863 4.0596 6.3953e-005 -4.43959e-006 -1.07726e-005 4.17848 -1.02486 0.046356 -4.72604 -31.3403 -24.8171 -1.27155 -17.465 -0.237699 -0.0156658 24.9078 -2.93433 -0.529163 -17.3815 -1.19582 4.3669 -15.8336 -0.336971 0.711591 -4.4863 4.0596 -7.1701e-005 -1.84071e-005 2.29942e-006 
2.53633 43.1408 8.50335 0.11558 23.0114 -0.126779 4.44089e-016 5.99393 0.287273 0.834485 0.0883618 0.136787 4.44089e-016 6.65865 -0.856112 1.66876 0.178658 0.272274 8.88178e-016 8.65624 -1.42685 5.77523 -7.08597 0.713951 -3.55271e-015 3.80999 -0.190247 5.73783 -7.10065 0.0846817 -1.4963 7.5744 -1.52136 -2.75338 2.48177 -12.2951 -5.47506 -0.905672 0.485692 67.0383 1.10538 -24.2384 -11.3069 -0.201091 0.618544 60.1442 62.3634 -2.54369 -9.61414 -0.254739 3.48553 -26.9962 35.0212 6.88081 0.176263 -0.07068 1.26622 -7.36755 1.7432 -11.9993 -1.04683 -0.546484 1.82182 -0.218607 0.232537 -0.655853 -0.993472 -0.621916 0.655506 -2.27851 2.72369 -7.25745 -2.64253 0.566363 2.4162 5.18843 6.90115 -6.67873 -1.39394 -0.635138 0.899356 -1.2634 -0.33851 0.182503 -0.622395 -0.856016 0.402182 1.13674 0.301033 -0.170366 -3.20814 0.514427 1.52547 -6.01107 1.36873 0.943507 -1.56545 -0.497974 0.68919 -2.08094 -0.645026 0.284489 -0.679943 -1.17582 0.444246 -6.43294 -2.02778 0.80411 -3.47877 0.200518 0.597719 -10.91 -4.63031 1.77805 -1.28208 -0.53155 0.44672 -6.17937 -2.20189 1.01384 -0.710288 -0.970167 0.4032 -10.4595 -3.79149 1.57722 -3.42483 -0.278904 -0.240415 -10.0536 -5.87085 2.34384 -1.05787 -0.635999 0.156459 -8.35995 -3.23863 1.18206 -0.42815 -0.754232 0.287187 -10.1664 -3.96072 1.3752 1.4963 7.5744 -1.52136 2.74915 3.42236 12.3255 5.47506 -0.905672 0.485692 -76.2095 12.8907 14.3831 11.3069 -0.201091 0.618544 -55.2181 58.1175 -5.2587 9.61414 -0.254739 3.48553 8.61812 19.9084 -14.2596 -0.176263 -0.07068 1.26622 2.74064 2.81308 9.90109 1.04683 -0.546484 1.82182 -1.10807 -0.308472 -1.96785 0.993472 -0.621916 0.655506 2.44897 0.830977 4.40251 2.64253 0.566363 2.4162 -14.5168 7.61107 13.936 1.39394 -0.635138 0.899356 -9.59115 2.84678 4.04113 0.622395 -0.856016 0.402182 -11.8722 3.41319 5.05555 3.20814 0.514427 1.52547 -9.57797 6.37398 5.36874 1.56545 -0.497974 0.68919 -13.5915 4.39942 5.92463 0.679943 -1.17582 0.444246 -9.43434 3.22105 4.02485 3.47877 0.200518 0.597719 -8.55941 2.70015 3.62364 1.28208 -0.53155 0.44672 -12.9847 4.63902 6.3577 0.710288 -0.970167 0.4032 -8.90609 3.35915 4.27685 3.42483 -0.278904 -0.240415 -9.39781 2.5014 2.57458 1.05787 -0.635999 0.156459 -10.7808 4.32813 5.14796 0.42815 -0.754232 0.287187 -9.06221 3.71489 4.28691 -4.17848 -1.02486 0.046356 -5.00506 -27.936 29.6423 1.27155 -17.465 -0.237699 3.05319 20.2043 2.22382 0.529163 -17.3815 -1.19582 1.01615 -18.3153 3.14437 -0.711591 -4.4863 4.0596 8.59682e-005 -6.42436e-006 -3.24424e-006 4.17848 -1.02486 0.046356 -4.80041 -31.3126 -24.838 -1.27155 -17.465 -0.237699 -0.00294606 24.8289 -2.87046 -0.529163 -17.3815 -1.19582 4.35434 -15.7999 -0.295978 0.711591 -4.4863 4.0596 -1.78473e-005 -1.35392e-005 2.52351e-005 
2.53449 43.1407 8.50362 0.235633 23.0252 -0.398228 -4.44089e-016 5.99393 0.287273 0.933801 0.213047 0.0866225 0 6.65865 -0.856112 1.8673 0.427497 0.169763 0 8.65624 -1.42685 6.32909 -7.63291 -0.568437 0 3.80999 -0.190247 6.2192 -7.54478 -1.22219 -1.4963 7.5744 -1.52136 -2.75379 2.48168 -12.2952 -5.47506 -0.905672 0.485692 66.8875 1.12324 -24.03 -11.3069 -0.201091 0.618544 59.8531 62.2634 -2.32062 -9.61414 -0.254739 3.48553 -27.2013 35.4318 7.01627 0.176263 -0.07068 1.26622 -7.36756 1.74317 -11.9993 -1.04683 -0.546484 1.82182 -0.218609 0.232542 -0.655858 -0.993472 -0.621916 0.655506 -2.27852 2.72368 -7.25745 -2.64253 0.566363 2.4162 5.18842 6.90115 -6.67874 -1.39394 -0.635138 0.899356 -1.2634 -0.338508 0.182499 -0.622395 -0.856016 0.402182 1.13676 0.301032 -0.170369 -3.20814 0.514427 1.52547 -6.01108 1.36874 0.943505 -1.56545 -0.497974 0.68919 -2.08092 -0.645026 0.284497 -0.679943 -1.17582 0.444246 -6.43295 -2.02778 0.804114 -3.47877 0.200518 0.597719 -10.91 -4.6303 1.77804 -1.28208 -0.53155 0.44672 -6.17939 -2.20189 1.01384 -0.710288 -0.970167 0.4032 -10.4595 -3.79148 1.57724 -3.42483 -0.278904 -0.240415 -10.0536 -5.87084 2.34384 -1.05787 -0.635999 0.156459 -8.35996 -3.23862 1.18205 -0.42815 -0.754232 0.287187 -10.1664 -3.96073 1.3752 1.4963 7.5744 -1.52136 2.74874 3.42227 12.3255 5.47506 -0.905672 0.485692 -76.6378 12.9831 14.3181 11.3069 -0.201091 0.618544 -54.5739 57.8106 -5.57271 9.61414 -0.254739 3.48553 8.79679 19.9243 -14.9213 -0.176263 -0.07068 1.26622 2.74063 2.81307 9.90111 1.04683 -0.546484 1.82182 -1.10806 -0.308467 -1.96786 0.993472 -0.621916 0.655506 2.44896 0.83096 4.40251 2.64253 0.566363 2.4162 -14.5168 7.61106 13.936 1.39394 -0.635138 0.899356 -9.59115 2.84675 4.04114 0.622395 -0.856016 0.402182 -11.8722 3.4132 5.05555 3.20814 0.514427 1.52547 -9.57796 6.37396 5.36874 1.56545 -0.497974 0.68919 -13.5915 4.39941 5.92466 0.679943 -1.17582 0.444246 -9.43434 3.22107 4.02485 3.47877 0.200518 0.597719 -8.55939 2.70015 3.62364 1.28208 -0.53155 0.44672 -12.9847 4.63901 6.35771 0.710288 -0.970167 0.4032 -8.90608 3.35917 4.27681 3.42483 -0.278904 -0.240415 -9.3978 2.50139 2.57458 1.05787 -0.635999 0.156459 -10.7808 4.32812 5.148 0.42815 -0.754232 0.287187 -9.06222 3.71492 4.28688 -4.17848 -1.02486 0.046356 -5.06091 -28.027 29.6332 1.27155 -17.465 -0.237699 3.09294 20.2441 2.35873 0.529163 -17.3815 -1.19582 1.00243 -18.3176 3.2428 -0.711591 -4.4863 4.0596 7.34129e-005 -3.18286e-006 -6.45398e-006 4.17848 -1.02486 0.046356 -4.84895 -31.2754 -24.851 -1.27155 -17.465 -0.237699 0.0337409 24.7887 -2.73286 -0.529163 -17.3815 -1.19582 4.32798 -15.7924 -0.195626 0.711591 -4.4863 4.0596 3.46747e-005 -2.88722e-006 2.48393e-005 
2.53269 43.1407 8.5037 0.359233 23.0316 -0.786372 0 5.99393 0.287273 1.05852 0.358094 0.00421329 -4.44089e-016 6.65865 -0.856112 2.11707 0.716198 0.00181048 0 8.65624 -1.42685 6.98516 -8.24347 -2.54539 0 3.80999 -0.190247 6.76241 -8.01594 -3.24476 -1.4963 7.5744 -1.52136 -2.75324 2.48182 -12.2951 -5.47506 -0.905672 0.485692 66.5997 1.14842 -23.7692 -11.3069 -0.201091 0.618544 59.6172 62.1819 -2.09088 -9.61414 -0.254739 3.48553 -27.3486 36.0214 7.12391 0.176263 -0.07068 1.26622 -7.36754 1.74312 -11.9994 -1.04683 -0.546484 1.82182 -0.218602 0.232549 -0.655855 -0.993472 -0.621916 0.655506 -2.27853 2.72369 -7.25745 -2.64253 0.566363 2.4162 5.18841 6.90119 -6.67873 -1.39394 -0.635138 0.899356 -1.2634 -0.338513 0.182511 -0.622395 -0.856016 0.402182 1.13675 0.30105 -0.170368 -3.20814 0.514427 1.52547 -6.01108 1.36877 0.943528 -1.56545 -0.497974 0.68919 -2.08093 -0.64503 0.28449 -0.679943 -1.17582 0.444246 -6.43295 -2.02778 0.804123 -3.47877 0.200518 0.597719 -10.91 -4.63029 1.77806 -1.28208 -0.53155 0.44672 -6.1794 -2.20188 1.01384 -0.710288 -0.970167 0.4032 -10.4595 -3.79148 1.57724 -3.42483 -0.278904 -0.240415 -10.0536 -5.87084 2.34383 -1.05787 -0.635999 0.156459 -8.35995 -3.23862 1.18207 -0.42815 -0.754232 0.287187 -10.1664 -3.96073 1.3752 1.4963 7.5744 -1.52136 2.74929 3.42241 12.3255 5.47506 -0.905672 0.485692 -77.2247 13.1128 14.2541 11.3069 -0.201091 0.618544 -53.7605 57.4118 -5.96458 9.61414 -0.254739 3.48553 9.08221 19.8274 -15.7442 -0.176263 -0.07068 1.26622 2.74063 2.81306 9.90109 1.04683 -0.546484 1.82182 -1.10807 -0.308478 -1.96787 0.993472 -0.621916 0.655506 2.44896 0.830974 4.40251 2.64253 0.566363 2.4162 -14.5168 7.61107 13.936 1.39394 -0.635138 0.899356 -9.59115 2.84674 4.04113 0.622395 -0.856016 0.402182 -11.8722 3.41312 5.05558 3.20814 0.514427 1.52547 -9.57797 6.37398 5.36874 1.56545 -0.497974 0.68919 -13.5915 4.39938 5.92465 0.679943 -1.17582 0.444246 -9.43432 3.22103 4.02489 3.47877 0.200518 0.597719 -8.55941 2.70016 3.62362 1.28208 -0.53155 0.44672 -12.9847 4.63898 6.35772 0.710288 -0.970167 0.4032 -8.90608 3.35914 4.27688 3.42483 -0.278904 -0.240415 -9.39782 2.5014 2.57457 1.05787 -0.635999 0.156459 -10.7808 4.32809 5.148 0.42815 -0.754232 0.287187 -9.0622 3.71489 4.28694 -4.17848 -1.02486 0.046356 -5.09948 -28.144 29.6265 1.27155 -17.465 -0.237699 3.15462 20.2642 2.55989 0.529163 -17.3815 -1.19582 0.985962 -18.291 3.38609 -0.711591 -4.4863 4.0596 9.48705e-005 -1.48491e-005 -3.35443e-006 4.17848 -1.02486 0.046356 -4.87688 -31.2319 -24.8578 -1.27155 -17.465 -0.237699 0.0897801 24.7804 -2.53581 -0.529163 -17.3815 -1.19582 4.29045 -15.8062 -0.0473383 0.711591 -4.4863 4.0596 3.13726e-005 -3.4576e-006 2.98441e-005 
